<mxfile host="app.diagrams.net" modified="2024-01-30T15:27:53.153Z" agent="Mozilla/5.0 (Macintosh; Intel Mac OS X 10_15_7) AppleWebKit/605.1.15 (KHTML, like Gecko) Version/15.2 Safari/605.1.15" version="23.0.2" etag="r2K7UfrhgPUr0lFmYCEN" type="github">
  <diagram name="페이지-1" id="2DuQdqVIVBDX4o7IVcW_">
    <mxGraphModel>
      <root>
        <mxCell id="0" />
        <mxCell id="1" parent="0" />
      </root>
    </mxGraphModel>
  </diagram>
</mxfile>
